<?xml version="1.0" encoding="UTF-8" standalone="no"?><!DOCTYPE svg PUBLIC "-//W3C//DTD SVG 1.1//EN" "http://www.w3.org/Graphics/SVG/1.1/DTD/svg11.dtd"><!-- Generated by graphviz version 2.40.1 (20161225.0304)
 --><!-- Title: %0 Pages: 1 --><svg xmlns="http://www.w3.org/2000/svg" xmlns:xlink="http://www.w3.org/1999/xlink" width="1953pt" height="476pt" viewBox="0.00 0.00 1952.61 476.00">
<g id="graph0" class="graph" transform="scale(1 1) rotate(0) translate(4 472)">
<title>%0</title>
<polygon fill="#ffffff" stroke="transparent" points="-4,4 -4,-472 1948.6148,-472 1948.6148,4 -4,4"/>
<!-- [root] aws_autoscaling_group.devops (expand) -->
<g id="node1" class="node">
<title>[root] aws_autoscaling_group.devops (expand)</title>
<polygon fill="none" stroke="#000000" points="1405.9896,-324 1214.2974,-324 1214.2974,-288 1405.9896,-288 1405.9896,-324"/>
<text text-anchor="middle" x="1310.1435" y="-301.8" font-family="Times,serif" font-size="14.00" fill="#000000">aws_autoscaling_group.devops</text>
</g>
<!-- [root] aws_launch_template.config (expand) -->
<g id="node2" class="node">
<title>[root] aws_launch_template.config (expand)</title>
<polygon fill="none" stroke="#000000" points="1240.2017,-252 1064.0853,-252 1064.0853,-216 1240.2017,-216 1240.2017,-252"/>
<text text-anchor="middle" x="1152.1435" y="-229.8" font-family="Times,serif" font-size="14.00" fill="#000000">aws_launch_template.config</text>
</g>
<!-- [root] aws_autoscaling_group.devops (expand)&#45;&gt;[root] aws_launch_template.config (expand) -->
<g id="edge1" class="edge">
<title>[root] aws_autoscaling_group.devops (expand)-&gt;[root] aws_launch_template.config (expand)</title>
<path fill="none" stroke="#000000" d="M1270.2734,-287.8314C1249.2358,-278.2446 1223.2452,-266.4008 1201.0039,-256.2655"/>
<polygon fill="#000000" stroke="#000000" points="1202.278,-252.9999 1191.7269,-252.038 1199.3752,-259.3697 1202.278,-252.9999"/>
</g>
<!-- [root] aws_lb_target_group.servers (expand) -->
<g id="node5" class="node">
<title>[root] aws_lb_target_group.servers (expand)</title>
<polygon fill="none" stroke="#000000" points="1511.9714,-252 1334.3156,-252 1334.3156,-216 1511.9714,-216 1511.9714,-252"/>
<text text-anchor="middle" x="1423.1435" y="-229.8" font-family="Times,serif" font-size="14.00" fill="#000000">aws_lb_target_group.servers</text>
</g>
<!-- [root] aws_autoscaling_group.devops (expand)&#45;&gt;[root] aws_lb_target_group.servers (expand) -->
<g id="edge2" class="edge">
<title>[root] aws_autoscaling_group.devops (expand)-&gt;[root] aws_lb_target_group.servers (expand)</title>
<path fill="none" stroke="#000000" d="M1338.6582,-287.8314C1352.9777,-278.7074 1370.5059,-267.539 1385.8773,-257.7449"/>
<polygon fill="#000000" stroke="#000000" points="1388.0852,-260.4882 1394.638,-252.1628 1384.3236,-254.5847 1388.0852,-260.4882"/>
</g>
<!-- [root] data.aws_subnet_ids.all (expand) -->
<g id="node18" class="node">
<title>[root] data.aws_subnet_ids.all (expand)</title>
<polygon fill="none" stroke="#000000" points="1384.6099,-180 1235.6771,-180 1235.6771,-144 1384.6099,-144 1384.6099,-180"/>
<text text-anchor="middle" x="1310.1435" y="-157.8" font-family="Times,serif" font-size="14.00" fill="#000000">data.aws_subnet_ids.all</text>
</g>
<!-- [root] aws_autoscaling_group.devops (expand)&#45;&gt;[root] data.aws_subnet_ids.all (expand) -->
<g id="edge3" class="edge">
<title>[root] aws_autoscaling_group.devops (expand)-&gt;[root] data.aws_subnet_ids.all (expand)</title>
<path fill="none" stroke="#000000" d="M1310.1435,-287.7623C1310.1435,-263.201 1310.1435,-219.2474 1310.1435,-190.3541"/>
<polygon fill="#000000" stroke="#000000" points="1313.6436,-190.0896 1310.1435,-180.0896 1306.6436,-190.0897 1313.6436,-190.0896"/>
</g>
<!-- [root] aws_security_group.servers (expand) -->
<g id="node9" class="node">
<title>[root] aws_security_group.servers (expand)</title>
<polygon fill="none" stroke="#000000" points="684.0251,-180 512.2619,-180 512.2619,-144 684.0251,-144 684.0251,-180"/>
<text text-anchor="middle" x="598.1435" y="-157.8" font-family="Times,serif" font-size="14.00" fill="#000000">aws_security_group.servers</text>
</g>
<!-- [root] aws_launch_template.config (expand)&#45;&gt;[root] aws_security_group.servers (expand) -->
<g id="edge4" class="edge">
<title>[root] aws_launch_template.config (expand)-&gt;[root] aws_security_group.servers (expand)</title>
<path fill="none" stroke="#000000" d="M1063.9196,-222.1802C1048.3366,-220.1087 1032.2651,-217.9825 1017.1435,-216 906.5558,-201.5014 779.5033,-185.1734 694.5683,-174.3053"/>
<polygon fill="#000000" stroke="#000000" points="694.7864,-170.8048 684.4231,-173.0075 693.8981,-177.7482 694.7864,-170.8048"/>
</g>
<!-- [root] aws_lb.awsalb (expand) -->
<g id="node3" class="node">
<title>[root] aws_lb.awsalb (expand)</title>
<polygon fill="none" stroke="#000000" points="1628.1709,-252 1530.1161,-252 1530.1161,-216 1628.1709,-216 1628.1709,-252"/>
<text text-anchor="middle" x="1579.1435" y="-229.8" font-family="Times,serif" font-size="14.00" fill="#000000">aws_lb.awsalb</text>
</g>
<!-- [root] aws_security_group.alb (expand) -->
<g id="node8" class="node">
<title>[root] aws_security_group.alb (expand)</title>
<polygon fill="none" stroke="#000000" points="1110.9911,-180 961.2959,-180 961.2959,-144 1110.9911,-144 1110.9911,-180"/>
<text text-anchor="middle" x="1036.1435" y="-157.8" font-family="Times,serif" font-size="14.00" fill="#000000">aws_security_group.alb</text>
</g>
<!-- [root] aws_lb.awsalb (expand)&#45;&gt;[root] aws_security_group.alb (expand) -->
<g id="edge5" class="edge">
<title>[root] aws_lb.awsalb (expand)-&gt;[root] aws_security_group.alb (expand)</title>
<path fill="none" stroke="#000000" d="M1529.9498,-218.0351C1526.9847,-217.2904 1524.0332,-216.6036 1521.1435,-216 1483.0418,-208.042 1249.7093,-183.6818 1121.0793,-170.5694"/>
<polygon fill="#000000" stroke="#000000" points="1121.1683,-167.0605 1110.8652,-169.5294 1120.4592,-174.0245 1121.1683,-167.0605"/>
</g>
<!-- [root] aws_lb.awsalb (expand)&#45;&gt;[root] data.aws_subnet_ids.all (expand) -->
<g id="edge6" class="edge">
<title>[root] aws_lb.awsalb (expand)-&gt;[root] data.aws_subnet_ids.all (expand)</title>
<path fill="none" stroke="#000000" d="M1529.8328,-218.5114C1526.8971,-217.647 1523.9841,-216.8037 1521.1435,-216 1479.728,-204.2819 1433.4267,-192.3084 1394.7725,-182.6233"/>
<polygon fill="#000000" stroke="#000000" points="1395.1521,-179.1107 1384.602,-180.0835 1393.4561,-185.9021 1395.1521,-179.1107"/>
</g>
<!-- [root] aws_lb_listener.http (expand) -->
<g id="node4" class="node">
<title>[root] aws_lb_listener.http (expand)</title>
<polygon fill="none" stroke="#000000" points="1552.7874,-324 1423.4996,-324 1423.4996,-288 1552.7874,-288 1552.7874,-324"/>
<text text-anchor="middle" x="1488.1435" y="-301.8" font-family="Times,serif" font-size="14.00" fill="#000000">aws_lb_listener.http</text>
</g>
<!-- [root] aws_lb_listener.http (expand)&#45;&gt;[root] aws_lb.awsalb (expand) -->
<g id="edge7" class="edge">
<title>[root] aws_lb_listener.http (expand)-&gt;[root] aws_lb.awsalb (expand)</title>
<path fill="none" stroke="#000000" d="M1511.1066,-287.8314C1522.315,-278.9632 1535.9644,-268.1637 1548.0874,-258.5718"/>
<polygon fill="#000000" stroke="#000000" points="1550.5172,-261.1125 1556.1877,-252.1628 1546.1738,-255.6229 1550.5172,-261.1125"/>
</g>
<!-- [root] aws_lb_listener.http (expand)&#45;&gt;[root] aws_lb_target_group.servers (expand) -->
<g id="edge8" class="edge">
<title>[root] aws_lb_listener.http (expand)-&gt;[root] aws_lb_target_group.servers (expand)</title>
<path fill="none" stroke="#000000" d="M1471.7413,-287.8314C1464.102,-279.3694 1454.8752,-269.1489 1446.5228,-259.8971"/>
<polygon fill="#000000" stroke="#000000" points="1449.0656,-257.4906 1439.7666,-252.4133 1443.8697,-262.1813 1449.0656,-257.4906"/>
</g>
<!-- [root] data.aws_vpc.default (expand) -->
<g id="node19" class="node">
<title>[root] data.aws_vpc.default (expand)</title>
<polygon fill="none" stroke="#000000" points="1377.3148,-108 1242.9722,-108 1242.9722,-72 1377.3148,-72 1377.3148,-108"/>
<text text-anchor="middle" x="1310.1435" y="-85.8" font-family="Times,serif" font-size="14.00" fill="#000000">data.aws_vpc.default</text>
</g>
<!-- [root] aws_lb_target_group.servers (expand)&#45;&gt;[root] data.aws_vpc.default (expand) -->
<g id="edge9" class="edge">
<title>[root] aws_lb_target_group.servers (expand)-&gt;[root] data.aws_vpc.default (expand)</title>
<path fill="none" stroke="#000000" d="M1420.7037,-215.7651C1417.3261,-196.2984 1409.6591,-165.3737 1393.1435,-144 1383.7491,-131.8422 1370.7978,-121.5917 1357.9182,-113.3985"/>
<polygon fill="#000000" stroke="#000000" points="1359.4287,-110.2224 1349.0575,-108.0569 1355.8147,-116.2173 1359.4287,-110.2224"/>
</g>
<!-- [root] aws_route53_record.www (expand) -->
<g id="node6" class="node">
<title>[root] aws_route53_record.www (expand)</title>
<polygon fill="none" stroke="#000000" points="1735.2453,-324 1571.0417,-324 1571.0417,-288 1735.2453,-288 1735.2453,-324"/>
<text text-anchor="middle" x="1653.1435" y="-301.8" font-family="Times,serif" font-size="14.00" fill="#000000">aws_route53_record.www</text>
</g>
<!-- [root] aws_route53_record.www (expand)&#45;&gt;[root] aws_lb.awsalb (expand) -->
<g id="edge10" class="edge">
<title>[root] aws_route53_record.www (expand)-&gt;[root] aws_lb.awsalb (expand)</title>
<path fill="none" stroke="#000000" d="M1634.4702,-287.8314C1625.6186,-279.219 1614.8949,-268.7851 1605.254,-259.4048"/>
<polygon fill="#000000" stroke="#000000" points="1607.4189,-256.6279 1597.8109,-252.1628 1602.5374,-261.645 1607.4189,-256.6279"/>
</g>
<!-- [root] aws_route53_zone.dopestartup (expand) -->
<g id="node7" class="node">
<title>[root] aws_route53_zone.dopestartup (expand)</title>
<polygon fill="none" stroke="#000000" points="1750.92,-108 1561.367,-108 1561.367,-72 1750.92,-72 1750.92,-108"/>
<text text-anchor="middle" x="1656.1435" y="-85.8" font-family="Times,serif" font-size="14.00" fill="#000000">aws_route53_zone.dopestartup</text>
</g>
<!-- [root] aws_route53_record.www (expand)&#45;&gt;[root] aws_route53_zone.dopestartup (expand) -->
<g id="edge11" class="edge">
<title>[root] aws_route53_record.www (expand)-&gt;[root] aws_route53_zone.dopestartup (expand)</title>
<path fill="none" stroke="#000000" d="M1653.3941,-287.9555C1653.9158,-250.3938 1655.1219,-163.5541 1655.7489,-118.4103"/>
<polygon fill="#000000" stroke="#000000" points="1659.2522,-118.1927 1655.8915,-108.1451 1652.2529,-118.0955 1659.2522,-118.1927"/>
</g>
<!-- [root] provider[&quot;registry.terraform.io/hashicorp/aws&quot;] -->
<g id="node20" class="node">
<title>[root] provider["registry.terraform.io/hashicorp/aws"]</title>
<polygon fill="none" stroke="#000000" points="1656.1435,-36 1381.153,-18 1656.1435,0 1931.134,-18 1656.1435,-36"/>
<text text-anchor="middle" x="1656.1435" y="-13.8" font-family="Times,serif" font-size="14.00" fill="#000000">provider["registry.terraform.io/hashicorp/aws"]</text>
</g>
<!-- [root] aws_route53_zone.dopestartup (expand)&#45;&gt;[root] provider[&quot;registry.terraform.io/hashicorp/aws&quot;] -->
<g id="edge12" class="edge">
<title>[root] aws_route53_zone.dopestartup (expand)-&gt;[root] provider["registry.terraform.io/hashicorp/aws"]</title>
<path fill="none" stroke="#000000" d="M1656.1435,-71.8314C1656.1435,-64.131 1656.1435,-54.9743 1656.1435,-46.4166"/>
<polygon fill="#000000" stroke="#000000" points="1659.6436,-46.4132 1656.1435,-36.4133 1652.6436,-46.4133 1659.6436,-46.4132"/>
</g>
<!-- [root] aws_security_group.alb (expand)&#45;&gt;[root] data.aws_vpc.default (expand) -->
<g id="edge13" class="edge">
<title>[root] aws_security_group.alb (expand)-&gt;[root] data.aws_vpc.default (expand)</title>
<path fill="none" stroke="#000000" d="M1104.9316,-143.9243C1143.8869,-133.6879 1192.7209,-120.8556 1232.9772,-110.2773"/>
<polygon fill="#000000" stroke="#000000" points="1233.9674,-113.636 1242.7495,-107.7094 1232.1883,-106.8658 1233.9674,-113.636"/>
</g>
<!-- [root] aws_security_group.servers (expand)&#45;&gt;[root] data.aws_vpc.default (expand) -->
<g id="edge14" class="edge">
<title>[root] aws_security_group.servers (expand)-&gt;[root] data.aws_vpc.default (expand)</title>
<path fill="none" stroke="#000000" d="M684.0273,-153.3151C823.8908,-139.1716 1098.6945,-111.3825 1232.8187,-97.8194"/>
<polygon fill="#000000" stroke="#000000" points="1233.413,-101.2772 1243.0101,-96.7888 1232.7086,-94.3127 1233.413,-101.2772"/>
</g>
<!-- [root] aws_security_group_rule.alb&#45;traffic (expand) -->
<g id="node10" class="node">
<title>[root] aws_security_group_rule.alb-traffic (expand)</title>
<polygon fill="none" stroke="#000000" points="464.6093,-252 247.6777,-252 247.6777,-216 464.6093,-216 464.6093,-252"/>
<text text-anchor="middle" x="356.1435" y="-229.8" font-family="Times,serif" font-size="14.00" fill="#000000">aws_security_group_rule.alb-traffic</text>
</g>
<!-- [root] aws_security_group_rule.alb&#45;traffic (expand)&#45;&gt;[root] aws_security_group.alb (expand) -->
<g id="edge15" class="edge">
<title>[root] aws_security_group_rule.alb-traffic (expand)-&gt;[root] aws_security_group.alb (expand)</title>
<path fill="none" stroke="#000000" d="M464.7741,-217.1969C467.9304,-216.7832 471.0587,-216.3832 474.1435,-216 642.988,-195.0267 841.2434,-177.6687 951.3987,-168.6658"/>
<polygon fill="#000000" stroke="#000000" points="951.7712,-172.1471 961.4542,-167.8472 951.2032,-165.1702 951.7712,-172.1471"/>
</g>
<!-- [root] aws_security_group_rule.alb&#45;traffic (expand)&#45;&gt;[root] aws_security_group.servers (expand) -->
<g id="edge16" class="edge">
<title>[root] aws_security_group_rule.alb-traffic (expand)-&gt;[root] aws_security_group.servers (expand)</title>
<path fill="none" stroke="#000000" d="M416.898,-215.9243C450.5561,-205.9103 492.5642,-193.412 527.6609,-182.97"/>
<polygon fill="#000000" stroke="#000000" points="528.7774,-186.2896 537.3641,-180.0831 526.7812,-179.5802 528.7774,-186.2896"/>
</g>
<!-- [root] aws_security_group_rule.alb&#45;traffic80 (expand) -->
<g id="node11" class="node">
<title>[root] aws_security_group_rule.alb-traffic80 (expand)</title>
<polygon fill="none" stroke="#000000" points="713.6093,-252 482.6777,-252 482.6777,-216 713.6093,-216 713.6093,-252"/>
<text text-anchor="middle" x="598.1435" y="-229.8" font-family="Times,serif" font-size="14.00" fill="#000000">aws_security_group_rule.alb-traffic80</text>
</g>
<!-- [root] aws_security_group_rule.alb&#45;traffic80 (expand)&#45;&gt;[root] aws_security_group.alb (expand) -->
<g id="edge17" class="edge">
<title>[root] aws_security_group_rule.alb-traffic80 (expand)-&gt;[root] aws_security_group.alb (expand)</title>
<path fill="none" stroke="#000000" d="M707.8217,-215.9707C783.1752,-203.5838 881.7528,-187.3793 951.1572,-175.9704"/>
<polygon fill="#000000" stroke="#000000" points="951.8794,-179.3987 961.1792,-174.3229 950.7439,-172.4914 951.8794,-179.3987"/>
</g>
<!-- [root] aws_security_group_rule.alb&#45;traffic80 (expand)&#45;&gt;[root] aws_security_group.servers (expand) -->
<g id="edge18" class="edge">
<title>[root] aws_security_group_rule.alb-traffic80 (expand)-&gt;[root] aws_security_group.servers (expand)</title>
<path fill="none" stroke="#000000" d="M598.1435,-215.8314C598.1435,-208.131 598.1435,-198.9743 598.1435,-190.4166"/>
<polygon fill="#000000" stroke="#000000" points="601.6436,-190.4132 598.1435,-180.4133 594.6436,-190.4133 601.6436,-190.4132"/>
</g>
<!-- [root] aws_security_group_rule.egress&#45;alb (expand) -->
<g id="node12" class="node">
<title>[root] aws_security_group_rule.egress-alb (expand)</title>
<polygon fill="none" stroke="#000000" points="1195.8962,-324 978.3908,-324 978.3908,-288 1195.8962,-288 1195.8962,-324"/>
<text text-anchor="middle" x="1087.1435" y="-301.8" font-family="Times,serif" font-size="14.00" fill="#000000">aws_security_group_rule.egress-alb</text>
</g>
<!-- [root] aws_security_group_rule.egress&#45;alb (expand)&#45;&gt;[root] aws_security_group.alb (expand) -->
<g id="edge19" class="edge">
<title>[root] aws_security_group_rule.egress-alb (expand)-&gt;[root] aws_security_group.alb (expand)</title>
<path fill="none" stroke="#000000" d="M1178.2725,-287.9771C1228.6145,-273.7756 1276.0146,-250.5336 1249.1435,-216 1233.0769,-195.3518 1173.0824,-181.3281 1120.8437,-172.7577"/>
<polygon fill="#000000" stroke="#000000" points="1121.2797,-169.2831 1110.854,-171.1682 1120.1798,-176.1961 1121.2797,-169.2831"/>
</g>
<!-- [root] aws_security_group_rule.egress&#45;servers (expand) -->
<g id="node13" class="node">
<title>[root] aws_security_group_rule.egress-servers (expand)</title>
<polygon fill="none" stroke="#000000" points="240.4307,-324 -.1437,-324 -.1437,-288 240.4307,-288 240.4307,-324"/>
<text text-anchor="middle" x="120.1435" y="-301.8" font-family="Times,serif" font-size="14.00" fill="#000000">aws_security_group_rule.egress-servers</text>
</g>
<!-- [root] aws_security_group_rule.egress&#45;servers (expand)&#45;&gt;[root] aws_security_group.servers (expand) -->
<g id="edge20" class="edge">
<title>[root] aws_security_group_rule.egress-servers (expand)-&gt;[root] aws_security_group.servers (expand)</title>
<path fill="none" stroke="#000000" d="M135.8504,-287.7024C155.0747,-266.6411 189.7182,-232.7997 227.1435,-216 274.8396,-194.5899 408.7701,-178.786 501.9242,-169.9833"/>
<polygon fill="#000000" stroke="#000000" points="502.3069,-173.4629 511.9385,-169.049 501.6566,-166.4931 502.3069,-173.4629"/>
</g>
<!-- [root] aws_security_group_rule.ingress&#45;from&#45;servers (expand) -->
<g id="node14" class="node">
<title>[root] aws_security_group_rule.ingress-from-servers (expand)</title>
<polygon fill="none" stroke="#000000" points="1008.4789,-252 731.8081,-252 731.8081,-216 1008.4789,-216 1008.4789,-252"/>
<text text-anchor="middle" x="870.1435" y="-229.8" font-family="Times,serif" font-size="14.00" fill="#000000">aws_security_group_rule.ingress-from-servers</text>
</g>
<!-- [root] aws_security_group_rule.ingress&#45;from&#45;servers (expand)&#45;&gt;[root] aws_security_group.alb (expand) -->
<g id="edge21" class="edge">
<title>[root] aws_security_group_rule.ingress-from-servers (expand)-&gt;[root] aws_security_group.alb (expand)</title>
<path fill="none" stroke="#000000" d="M912.0323,-215.8314C934.2338,-206.2018 961.6857,-194.295 985.1219,-184.1299"/>
<polygon fill="#000000" stroke="#000000" points="986.7744,-187.2282 994.5559,-180.038 983.989,-180.8062 986.7744,-187.2282"/>
</g>
<!-- [root] aws_security_group_rule.ingress&#45;from&#45;servers (expand)&#45;&gt;[root] aws_security_group.servers (expand) -->
<g id="edge22" class="edge">
<title>[root] aws_security_group_rule.ingress-from-servers (expand)-&gt;[root] aws_security_group.servers (expand)</title>
<path fill="none" stroke="#000000" d="M801.8575,-215.9243C763.7035,-205.8247 716.0034,-193.1982 676.3538,-182.7027"/>
<polygon fill="#000000" stroke="#000000" points="677.0203,-179.2587 666.4576,-180.0831 675.229,-186.0256 677.0203,-179.2587"/>
</g>
<!-- [root] aws_security_group_rule.management (expand) -->
<g id="node15" class="node">
<title>[root] aws_security_group_rule.management (expand)</title>
<polygon fill="none" stroke="#000000" points="528.182,-324 296.105,-324 296.105,-288 528.182,-288 528.182,-324"/>
<text text-anchor="middle" x="412.1435" y="-301.8" font-family="Times,serif" font-size="14.00" fill="#000000">aws_security_group_rule.management</text>
</g>
<!-- [root] aws_security_group_rule.management (expand)&#45;&gt;[root] aws_security_group.servers (expand) -->
<g id="edge23" class="edge">
<title>[root] aws_security_group_rule.management (expand)-&gt;[root] aws_security_group.servers (expand)</title>
<path fill="none" stroke="#000000" d="M313.0458,-287.9816C259.2501,-273.8586 209.2699,-250.7032 239.1435,-216 256.1632,-196.2288 401.3256,-179.4447 501.7635,-170.0536"/>
<polygon fill="#000000" stroke="#000000" points="502.311,-173.518 511.9464,-169.1124 501.6666,-166.5477 502.311,-173.518"/>
</g>
<!-- [root] aws_security_group_rule.web&#45;access (expand) -->
<g id="node16" class="node">
<title>[root] aws_security_group_rule.web-access (expand)</title>
<polygon fill="none" stroke="#000000" points="884.3809,-324 659.9061,-324 659.9061,-288 884.3809,-288 884.3809,-324"/>
<text text-anchor="middle" x="772.1435" y="-301.8" font-family="Times,serif" font-size="14.00" fill="#000000">aws_security_group_rule.web-access</text>
</g>
<!-- [root] aws_security_group_rule.web&#45;access (expand)&#45;&gt;[root] aws_security_group.alb (expand) -->
<g id="edge24" class="edge">
<title>[root] aws_security_group_rule.web-access (expand)-&gt;[root] aws_security_group.alb (expand)</title>
<path fill="none" stroke="#000000" d="M884.5581,-293.1363C939.5887,-284.5554 998.0568,-271.257 1017.1435,-252 1033.0572,-235.9443 1037.1811,-210.1258 1037.688,-190.2509"/>
<polygon fill="#000000" stroke="#000000" points="1041.1879,-190.1915 1037.6582,-180.202 1034.188,-190.2124 1041.1879,-190.1915"/>
</g>
<!-- [root] data.aws_availability_zones.all (expand) -->
<g id="node17" class="node">
<title>[root] data.aws_availability_zones.all (expand)</title>
<polygon fill="none" stroke="#000000" points="1944.5861,-324 1753.7009,-324 1753.7009,-288 1944.5861,-288 1944.5861,-324"/>
<text text-anchor="middle" x="1849.1435" y="-301.8" font-family="Times,serif" font-size="14.00" fill="#000000">data.aws_availability_zones.all</text>
</g>
<!-- [root] data.aws_availability_zones.all (expand)&#45;&gt;[root] provider[&quot;registry.terraform.io/hashicorp/aws&quot;] -->
<g id="edge25" class="edge">
<title>[root] data.aws_availability_zones.all (expand)-&gt;[root] provider["registry.terraform.io/hashicorp/aws"]</title>
<path fill="none" stroke="#000000" d="M1846.7291,-287.9086C1840.1927,-245.3516 1818.5401,-137.5612 1760.1435,-72 1746.8344,-57.0581 1728.4006,-45.6266 1710.7444,-37.2137"/>
<polygon fill="#000000" stroke="#000000" points="1712.1676,-34.0161 1701.6135,-33.0869 1709.2845,-40.3948 1712.1676,-34.0161"/>
</g>
<!-- [root] data.aws_subnet_ids.all (expand)&#45;&gt;[root] data.aws_vpc.default (expand) -->
<g id="edge26" class="edge">
<title>[root] data.aws_subnet_ids.all (expand)-&gt;[root] data.aws_vpc.default (expand)</title>
<path fill="none" stroke="#000000" d="M1310.1435,-143.8314C1310.1435,-136.131 1310.1435,-126.9743 1310.1435,-118.4166"/>
<polygon fill="#000000" stroke="#000000" points="1313.6436,-118.4132 1310.1435,-108.4133 1306.6436,-118.4133 1313.6436,-118.4132"/>
</g>
<!-- [root] data.aws_vpc.default (expand)&#45;&gt;[root] provider[&quot;registry.terraform.io/hashicorp/aws&quot;] -->
<g id="edge27" class="edge">
<title>[root] data.aws_vpc.default (expand)-&gt;[root] provider["registry.terraform.io/hashicorp/aws"]</title>
<path fill="none" stroke="#000000" d="M1377.266,-76.0323C1435.4403,-63.9267 1519.5676,-46.4204 1580.1915,-33.805"/>
<polygon fill="#000000" stroke="#000000" points="1581.0121,-37.2093 1590.0893,-31.7454 1579.5859,-30.3562 1581.0121,-37.2093"/>
</g>
<!-- [root] meta.count&#45;boundary (EachMode fixup) -->
<g id="node21" class="node">
<title>[root] meta.count-boundary (EachMode fixup)</title>
<ellipse fill="none" stroke="#000000" cx="1088.1435" cy="-378" rx="191.4666" ry="18"/>
<text text-anchor="middle" x="1088.1435" y="-373.8" font-family="Times,serif" font-size="14.00" fill="#000000">[root] meta.count-boundary (EachMode fixup)</text>
</g>
<!-- [root] meta.count&#45;boundary (EachMode fixup)&#45;&gt;[root] aws_autoscaling_group.devops (expand) -->
<g id="edge28" class="edge">
<title>[root] meta.count-boundary (EachMode fixup)-&gt;[root] aws_autoscaling_group.devops (expand)</title>
<path fill="none" stroke="#000000" d="M1141.6005,-360.6626C1172.6622,-350.5885 1212.0333,-337.8195 1244.9104,-327.1567"/>
<polygon fill="#000000" stroke="#000000" points="1246.0101,-330.4796 1254.4425,-324.0652 1243.8505,-323.821 1246.0101,-330.4796"/>
</g>
<!-- [root] meta.count&#45;boundary (EachMode fixup)&#45;&gt;[root] aws_lb_listener.http (expand) -->
<g id="edge29" class="edge">
<title>[root] meta.count-boundary (EachMode fixup)-&gt;[root] aws_lb_listener.http (expand)</title>
<path fill="none" stroke="#000000" d="M1192.7185,-362.8594C1254.4527,-353.4161 1334.3052,-340.33 1413.2072,-324.3303"/>
<polygon fill="#000000" stroke="#000000" points="1414.2284,-327.694 1423.3244,-322.2614 1412.8259,-320.8359 1414.2284,-327.694"/>
</g>
<!-- [root] meta.count&#45;boundary (EachMode fixup)&#45;&gt;[root] aws_route53_record.www (expand) -->
<g id="edge30" class="edge">
<title>[root] meta.count-boundary (EachMode fixup)-&gt;[root] aws_route53_record.www (expand)</title>
<path fill="none" stroke="#000000" d="M1224.9258,-365.4097C1317.2278,-356.2023 1441.962,-342.3851 1560.8455,-324.1392"/>
<polygon fill="#000000" stroke="#000000" points="1561.51,-327.5781 1570.8571,-322.5899 1560.4395,-320.6605 1561.51,-327.5781"/>
</g>
<!-- [root] meta.count&#45;boundary (EachMode fixup)&#45;&gt;[root] aws_security_group_rule.alb&#45;traffic (expand) -->
<g id="edge31" class="edge">
<title>[root] meta.count-boundary (EachMode fixup)-&gt;[root] aws_security_group_rule.alb-traffic (expand)</title>
<path fill="none" stroke="#000000" d="M959.0117,-364.6822C851.799,-353.1361 708.0048,-336.3821 651.1435,-324 599.2272,-312.6947 587.9361,-303.5956 537.1435,-288 500.9085,-276.8742 460.4944,-264.7864 427.0624,-254.8736"/>
<polygon fill="#000000" stroke="#000000" points="427.9591,-251.4889 417.3768,-252.0046 425.9709,-258.2007 427.9591,-251.4889"/>
</g>
<!-- [root] meta.count&#45;boundary (EachMode fixup)&#45;&gt;[root] aws_security_group_rule.alb&#45;traffic80 (expand) -->
<g id="edge32" class="edge">
<title>[root] meta.count-boundary (EachMode fixup)-&gt;[root] aws_security_group_rule.alb-traffic80 (expand)</title>
<path fill="none" stroke="#000000" d="M1012.3981,-361.3581C983.9033,-352.9487 952.137,-340.856 926.1435,-324 907.9323,-312.1906 912.1398,-298.5001 893.1435,-288 877.8294,-279.5352 797.256,-265.0705 724.1822,-253.2411"/>
<polygon fill="#000000" stroke="#000000" points="724.3577,-249.7243 713.9285,-251.5903 723.245,-256.6353 724.3577,-249.7243"/>
</g>
<!-- [root] meta.count&#45;boundary (EachMode fixup)&#45;&gt;[root] aws_security_group_rule.egress&#45;alb (expand) -->
<g id="edge33" class="edge">
<title>[root] meta.count-boundary (EachMode fixup)-&gt;[root] aws_security_group_rule.egress-alb (expand)</title>
<path fill="none" stroke="#000000" d="M1087.8912,-359.8314C1087.7842,-352.131 1087.657,-342.9743 1087.5382,-334.4166"/>
<polygon fill="#000000" stroke="#000000" points="1091.0379,-334.3637 1087.3992,-324.4133 1084.0386,-334.4609 1091.0379,-334.3637"/>
</g>
<!-- [root] meta.count&#45;boundary (EachMode fixup)&#45;&gt;[root] aws_security_group_rule.egress&#45;servers (expand) -->
<g id="edge34" class="edge">
<title>[root] meta.count-boundary (EachMode fixup)-&gt;[root] aws_security_group_rule.egress-servers (expand)</title>
<path fill="none" stroke="#000000" d="M952.4974,-365.3055C930.6537,-363.4189 908.281,-361.5802 887.1435,-360 620.7407,-340.0838 553.3556,-346.3205 287.1435,-324 275.3383,-323.0102 263.0743,-321.8812 250.7944,-320.6822"/>
<polygon fill="#000000" stroke="#000000" points="250.7818,-317.1639 240.4853,-319.6601 250.0911,-324.1298 250.7818,-317.1639"/>
</g>
<!-- [root] meta.count&#45;boundary (EachMode fixup)&#45;&gt;[root] aws_security_group_rule.ingress&#45;from&#45;servers (expand) -->
<g id="edge35" class="edge">
<title>[root] meta.count-boundary (EachMode fixup)-&gt;[root] aws_security_group_rule.ingress-from-servers (expand)</title>
<path fill="none" stroke="#000000" d="M1040.894,-360.5505C1018.3099,-351.2293 991.4137,-338.6514 969.1435,-324 953.9096,-313.9777 920.123,-282.3954 896.2711,-259.469"/>
<polygon fill="#000000" stroke="#000000" points="898.5385,-256.7931 888.9122,-252.3678 893.6778,-261.8303 898.5385,-256.7931"/>
</g>
<!-- [root] meta.count&#45;boundary (EachMode fixup)&#45;&gt;[root] aws_security_group_rule.management (expand) -->
<g id="edge36" class="edge">
<title>[root] meta.count-boundary (EachMode fixup)-&gt;[root] aws_security_group_rule.management (expand)</title>
<path fill="none" stroke="#000000" d="M961.0521,-364.52C858.2937,-353.6137 709.8938,-337.8471 580.1435,-324 566.6476,-322.5597 552.5422,-321.052 538.4884,-319.5484"/>
<polygon fill="#000000" stroke="#000000" points="538.5893,-316.0393 528.2736,-318.4553 537.8444,-322.9996 538.5893,-316.0393"/>
</g>
<!-- [root] meta.count&#45;boundary (EachMode fixup)&#45;&gt;[root] aws_security_group_rule.web&#45;access (expand) -->
<g id="edge37" class="edge">
<title>[root] meta.count-boundary (EachMode fixup)-&gt;[root] aws_security_group_rule.web-access (expand)</title>
<path fill="none" stroke="#000000" d="M1014.8525,-361.3008C969.0539,-350.8657 909.7736,-337.3588 861.264,-326.3059"/>
<polygon fill="#000000" stroke="#000000" points="861.927,-322.8674 851.3994,-324.0583 860.3719,-329.6925 861.927,-322.8674"/>
</g>
<!-- [root] meta.count&#45;boundary (EachMode fixup)&#45;&gt;[root] data.aws_availability_zones.all (expand) -->
<g id="edge38" class="edge">
<title>[root] meta.count-boundary (EachMode fixup)-&gt;[root] data.aws_availability_zones.all (expand)</title>
<path fill="none" stroke="#000000" d="M1251.3195,-368.5548C1381.766,-360.0647 1569.4734,-345.7501 1743.5079,-324.0139"/>
<polygon fill="#000000" stroke="#000000" points="1744.143,-327.4617 1753.6273,-322.7396 1743.2683,-320.5165 1744.143,-327.4617"/>
</g>
<!-- [root] provider[&quot;registry.terraform.io/hashicorp/aws&quot;] (close) -->
<g id="node22" class="node">
<title>[root] provider["registry.terraform.io/hashicorp/aws"] (close)</title>
<ellipse fill="none" stroke="#000000" cx="631.1435" cy="-378" rx="247.2168" ry="18"/>
<text text-anchor="middle" x="631.1435" y="-373.8" font-family="Times,serif" font-size="14.00" fill="#000000">[root] provider["registry.terraform.io/hashicorp/aws"] (close)</text>
</g>
<!-- [root] provider[&quot;registry.terraform.io/hashicorp/aws&quot;] (close)&#45;&gt;[root] aws_autoscaling_group.devops (expand) -->
<g id="edge39" class="edge">
<title>[root] provider["registry.terraform.io/hashicorp/aws"] (close)-&gt;[root] aws_autoscaling_group.devops (expand)</title>
<path fill="none" stroke="#000000" d="M804.5301,-365.1392C915.9353,-356.0467 1063.9406,-342.4293 1204.2509,-324.0629"/>
<polygon fill="#000000" stroke="#000000" points="1204.8829,-327.51 1214.3393,-322.7323 1203.9675,-320.5701 1204.8829,-327.51"/>
</g>
<!-- [root] provider[&quot;registry.terraform.io/hashicorp/aws&quot;] (close)&#45;&gt;[root] aws_lb_listener.http (expand) -->
<g id="edge40" class="edge">
<title>[root] provider["registry.terraform.io/hashicorp/aws"] (close)-&gt;[root] aws_lb_listener.http (expand)</title>
<path fill="none" stroke="#000000" d="M809.1411,-365.4933C835.6253,-363.644 862.5981,-361.7671 888.1435,-360 1119.0355,-344.028 1181.4315,-359.7796 1413.2865,-324.154"/>
<polygon fill="#000000" stroke="#000000" points="1414.0384,-327.5793 1423.3832,-322.5868 1412.9647,-320.6621 1414.0384,-327.5793"/>
</g>
<!-- [root] provider[&quot;registry.terraform.io/hashicorp/aws&quot;] (close)&#45;&gt;[root] aws_route53_record.www (expand) -->
<g id="edge41" class="edge">
<title>[root] provider["registry.terraform.io/hashicorp/aws"] (close)-&gt;[root] aws_route53_record.www (expand)</title>
<path fill="none" stroke="#000000" d="M806.6911,-365.3156C833.9553,-363.4581 861.8045,-361.6257 888.1435,-360 1184.1937,-341.7274 1262.7205,-360.7611 1560.6512,-324.0849"/>
<polygon fill="#000000" stroke="#000000" points="1561.3961,-327.5193 1570.8885,-322.8135 1560.5333,-320.5727 1561.3961,-327.5193"/>
</g>
<!-- [root] provider[&quot;registry.terraform.io/hashicorp/aws&quot;] (close)&#45;&gt;[root] aws_security_group_rule.alb&#45;traffic (expand) -->
<g id="edge42" class="edge">
<title>[root] provider["registry.terraform.io/hashicorp/aws"] (close)-&gt;[root] aws_security_group_rule.alb-traffic (expand)</title>
<path fill="none" stroke="#000000" d="M482.1268,-363.6046C395.3431,-353.6745 300.4049,-339.5055 287.1435,-324 276.744,-311.8406 280.1355,-302.3836 287.1435,-288 292.8739,-276.2386 302.5422,-266.2849 312.8556,-258.2518"/>
<polygon fill="#000000" stroke="#000000" points="315.1448,-260.9159 321.202,-252.2233 311.0461,-255.2412 315.1448,-260.9159"/>
</g>
<!-- [root] provider[&quot;registry.terraform.io/hashicorp/aws&quot;] (close)&#45;&gt;[root] aws_security_group_rule.alb&#45;traffic80 (expand) -->
<g id="edge43" class="edge">
<title>[root] provider["registry.terraform.io/hashicorp/aws"] (close)-&gt;[root] aws_security_group_rule.alb-traffic80 (expand)</title>
<path fill="none" stroke="#000000" d="M626.6108,-359.5246C624.0754,-349.1034 620.8833,-335.837 618.1435,-324 613.3909,-303.4672 608.2363,-280.2468 604.3505,-262.5355"/>
<polygon fill="#000000" stroke="#000000" points="607.6661,-261.3139 602.1099,-252.2928 600.8278,-262.8098 607.6661,-261.3139"/>
</g>
<!-- [root] provider[&quot;registry.terraform.io/hashicorp/aws&quot;] (close)&#45;&gt;[root] aws_security_group_rule.egress&#45;alb (expand) -->
<g id="edge44" class="edge">
<title>[root] provider["registry.terraform.io/hashicorp/aws"] (close)-&gt;[root] aws_security_group_rule.egress-alb (expand)</title>
<path fill="none" stroke="#000000" d="M734.9021,-361.6171C804.3063,-350.6585 895.8222,-336.2086 968.1768,-324.7842"/>
<polygon fill="#000000" stroke="#000000" points="968.9232,-328.2098 978.2549,-323.1929 967.8314,-321.2955 968.9232,-328.2098"/>
</g>
<!-- [root] provider[&quot;registry.terraform.io/hashicorp/aws&quot;] (close)&#45;&gt;[root] aws_security_group_rule.egress&#45;servers (expand) -->
<g id="edge45" class="edge">
<title>[root] provider["registry.terraform.io/hashicorp/aws"] (close)-&gt;[root] aws_security_group_rule.egress-servers (expand)</title>
<path fill="none" stroke="#000000" d="M517.4187,-361.9762C438.4313,-350.8468 332.992,-335.9904 250.5883,-324.3797"/>
<polygon fill="#000000" stroke="#000000" points="251.0471,-320.9099 240.6566,-322.9803 250.0704,-327.8414 251.0471,-320.9099"/>
</g>
<!-- [root] provider[&quot;registry.terraform.io/hashicorp/aws&quot;] (close)&#45;&gt;[root] aws_security_group_rule.ingress&#45;from&#45;servers (expand) -->
<g id="edge46" class="edge">
<title>[root] provider["registry.terraform.io/hashicorp/aws"] (close)-&gt;[root] aws_security_group_rule.ingress-from-servers (expand)</title>
<path fill="none" stroke="#000000" d="M629.9407,-359.8621C629.6428,-339.5927 632.4618,-307.1181 651.1435,-288 664.7995,-274.0251 701.0873,-262.7398 740.2874,-254.1708"/>
<polygon fill="#000000" stroke="#000000" points="741.2457,-257.5456 750.3043,-252.0508 739.7962,-250.6973 741.2457,-257.5456"/>
</g>
<!-- [root] provider[&quot;registry.terraform.io/hashicorp/aws&quot;] (close)&#45;&gt;[root] aws_security_group_rule.management (expand) -->
<g id="edge47" class="edge">
<title>[root] provider["registry.terraform.io/hashicorp/aws"] (close)-&gt;[root] aws_security_group_rule.management (expand)</title>
<path fill="none" stroke="#000000" d="M577.5701,-360.3868C547.159,-350.3887 508.881,-337.8041 476.8068,-327.2592"/>
<polygon fill="#000000" stroke="#000000" points="477.6604,-323.8556 467.0675,-324.0572 475.4741,-330.5054 477.6604,-323.8556"/>
</g>
<!-- [root] provider[&quot;registry.terraform.io/hashicorp/aws&quot;] (close)&#45;&gt;[root] aws_security_group_rule.web&#45;access (expand) -->
<g id="edge48" class="edge">
<title>[root] provider["registry.terraform.io/hashicorp/aws"] (close)-&gt;[root] aws_security_group_rule.web-access (expand)</title>
<path fill="none" stroke="#000000" d="M666.36,-360.0171C684.9501,-350.5243 707.9501,-338.7796 727.7507,-328.6687"/>
<polygon fill="#000000" stroke="#000000" points="729.5729,-331.6681 736.8872,-324.0032 726.3894,-325.4339 729.5729,-331.6681"/>
</g>
<!-- [root] provider[&quot;registry.terraform.io/hashicorp/aws&quot;] (close)&#45;&gt;[root] data.aws_availability_zones.all (expand) -->
<g id="edge49" class="edge">
<title>[root] provider["registry.terraform.io/hashicorp/aws"] (close)-&gt;[root] data.aws_availability_zones.all (expand)</title>
<path fill="none" stroke="#000000" d="M804.9433,-365.1664C832.7609,-363.3028 861.2375,-361.5077 888.1435,-360 1264.9863,-338.883 1363.7662,-363.8056 1743.479,-323.9782"/>
<polygon fill="#000000" stroke="#000000" points="1744.0697,-327.4353 1753.6464,-322.9034 1743.3338,-320.4741 1744.0697,-327.4353"/>
</g>
<!-- [root] root -->
<g id="node23" class="node">
<title>[root] root</title>
<ellipse fill="none" stroke="#000000" cx="859.1435" cy="-450" rx="50.9823" ry="18"/>
<text text-anchor="middle" x="859.1435" y="-445.8" font-family="Times,serif" font-size="14.00" fill="#000000">[root] root</text>
</g>
<!-- [root] root&#45;&gt;[root] meta.count&#45;boundary (EachMode fixup) -->
<g id="edge50" class="edge">
<title>[root] root-&gt;[root] meta.count-boundary (EachMode fixup)</title>
<path fill="none" stroke="#000000" d="M897.473,-437.9488C931.7748,-427.164 982.7683,-411.1311 1023.3912,-398.3588"/>
<polygon fill="#000000" stroke="#000000" points="1024.4575,-401.6925 1032.9473,-395.3543 1022.3579,-395.0148 1024.4575,-401.6925"/>
</g>
<!-- [root] root&#45;&gt;[root] provider[&quot;registry.terraform.io/hashicorp/aws&quot;] (close) -->
<g id="edge51" class="edge">
<title>[root] root-&gt;[root] provider["registry.terraform.io/hashicorp/aws"] (close)</title>
<path fill="none" stroke="#000000" d="M820.9814,-437.9488C787.1357,-427.2607 736.9678,-411.4182 696.7037,-398.7032"/>
<polygon fill="#000000" stroke="#000000" points="697.5506,-395.3003 686.9608,-395.6265 695.4426,-401.9754 697.5506,-395.3003"/>
</g>
</g>
</svg>